<svg id="Group_3" data-name="Group 3" xmlns="http://www.w3.org/2000/svg" width="1920" height="1080" viewBox="0 0 1920 1080">
  <g id="Rectangle_1" data-name="Rectangle 1" stroke="#707070" stroke-width="1">
    <rect width="1920" height="1080" stroke="none"/>
    <rect x="0.5" y="0.5" width="1919" height="1079" fill="none"/>
  </g>
  <g id="Group_2" data-name="Group 2">
    <g id="headline" transform="translate(399 449)">
      <g id="Group_1" data-name="Group 1">
        <path id="Path_1" data-name="Path 1" d="M1122,183V0H0V183H1122M975.85,51.15h16.8V131.8h-15.6L949.4,91.15l-3.35-7.65.2,48.3h-16.8V51.15h15.6l28,41.2,3,6.6-.2-47.8m70.3,0v15.1H1014v16.8h24.9V98.2H1014v18.45h32.15V131.8h-51.3V51.15h51.3m25.2,65.8v16h-16v-16h16M919.2,54.9q8.05,4.95,8.05,13.7v45.7q0,8.75-8.05,13.7-7.95,4.9-21.75,4.9-13.85,0-21.8-4.9-8-4.95-8-13.7V68.6q0-8.75,8-13.7,7.95-4.9,21.8-4.9,13.8,0,21.75,4.9m-61.8,3.2q7.4,6.4,7.4,19.5v27.75q0,13.95-7.5,20.15-7.6,6.3-24.9,6.3h-28V51.15h27.9q17.2,0,25.1,6.95M751,66.25v16.8h24.85V98.2H751v18.45h32.15V131.8h-51.3V51.15h51.3v15.1H751m-95.6-15.1v15.1H636.5V131.8H617.35V66.25H598.3V51.15h57.1m61.9,4.55q8,4.9,8,14.6v5.35q0,7.95-9.1,11.65,6.55,1.85,9.7,5.5a13.332,13.332,0,0,1,3.1,9.1v11.3a15.4,15.4,0,0,1-8.05,14.05q-7.65,4.55-21.65,4.55H670.95V51.15h24.9q13.95,0,21.45,4.55M595.7,51.15l-10.75,32.5h-14.8l3.6-32.5H595.7m-71.55,40L520.8,83.5l.25,48.3h-16.8V51.15H519.8l28,41.2,3,6.6-.2-47.8h16.8V131.8H551.85l-27.7-40.65M416.9,70.75q0-5.5-9.45-5.5-4.85,0-7.15,1.35a4.4,4.4,0,0,0-2.35,4.15V112.2a4.4,4.4,0,0,0,2.35,4.15q2.3,1.3,7.15,1.3,9.45,0,9.45-5.45v-9.55h17.9v12.8q0,8.2-7.7,12.85-7.6,4.6-20.75,4.6-12.75,0-20.1-4.6-7.45-4.6-7.45-12.85V67.5q0-8.25,7.75-12.9,7.6-4.6,20.9-4.6,12.65,0,19.95,4.6,7.4,4.65,7.4,12.9V80.25H416.9v-9.5m39.45-19.6H479.1l24.1,80.65H484l-4.1-15.25H455.35L451.3,131.8H432.15l24.2-80.65M351.25,98.2H326.4v18.45h32.15V131.8h-51.3V51.15h51.3v15.1H326.4v16.8h24.85V98.2M264.6,51.15v31.9H286V51.15h19V131.8H286V98.2H264.6v33.6H245.45V51.15H264.6m-21.15,0v15.1h-18.9V131.8H205.4V66.25H186.35V51.15h57.1m-79.7,3.75q8.05,4.95,8.05,13.7v45.7q0,8.75-8.05,13.7-7.95,4.9-21.75,4.9-13.85,0-21.8-4.9-8-4.95-8-13.7V68.6q0-8.75,8-13.7Q128.15,50,142,50q13.8,0,21.75,4.9m-60.8,3.2q7.4,6.4,7.4,19.5v27.75q0,13.95-7.5,20.15-7.6,6.3-24.85,6.3H50V51.15H77.85q17.2,0,25.1,6.95m-25.1,8.3h-8.7v50.15H78q6.8,0,10.45-2.95,3.85-3.1,3.85-9.25V78.6q0-12.2-14.45-12.2m56.1.45a5.379,5.379,0,0,0-2.6,5v39.2a5.5,5.5,0,0,0,2.6,5.05q2.6,1.55,8.05,1.55t8.05-1.55a5.5,5.5,0,0,0,2.6-5.05V71.85a5.449,5.449,0,0,0-2.6-5q-2.6-1.6-8.05-1.6t-8.05,1.6M459.7,100.3h15.9l-7.95-29.65L459.7,100.3m239.6-4h-9.2v21.5h9.2q5,0,7.7-1.9a6.874,6.874,0,0,0,2.85-5.95V102.9q0-6.6-10.55-6.6M706.15,73q0-4.1-2.4-5.95-2.45-1.9-7.9-1.9H690.1V83.3h5.75q5.25,0,7.85-2.2a7.291,7.291,0,0,0,2.45-5.85V73M832.3,66.4h-8.75v50.15h8.85q6.85,0,10.5-2.95,3.85-3.1,3.85-9.25V78.6q0-12.2-14.45-12.2m73.15.45q-2.6-1.6-8-1.6-5.5,0-8.05,1.6a5.379,5.379,0,0,0-2.6,5v39.2a5.5,5.5,0,0,0,2.6,5.05q2.55,1.55,8.05,1.55,5.4,0,8-1.55a5.538,5.538,0,0,0,2.65-5.05V71.85A5.422,5.422,0,0,0,905.45,66.85Z"/>
      </g>
    </g>
  </g>
</svg>
